<svg xmlns="http://www.w3.org/2000/svg" width="275" height="31" fill="none" viewBox="0 0 275 31"><path fill="#fff" d="m49.667 22.363-.067-.861 1.316-.316c.014-.062.029-.191.043-.397s.024-.531.033-.986.01-1.062.01-1.832l.024-4.599q-.002-1.134-.024-1.78c-.014-.43-.029-.746-.034-.952q-.014-.309-.033-.373l-1.402-.34.067-.861h4.823q2.24.001 3.488.986 1.244.983 1.245 2.842 0 1.27-.646 2.196a4.3 4.3 0 0 1-1.733 1.44q-1.084.509-2.42.508c-.33 0-.647-.02-.939-.058q-.442-.058-.827-.124V15.63c.349.105.65.182.918.225q.395.066.78.067 1.335-.001 2.082-.67.746-.666.746-2.072c0-1.072-.282-1.861-.837-2.369-.56-.507-1.259-.76-2.106-.76h-1.2c0 .09 0 .301-.01.636-.01.33-.014.727-.024 1.187-.01.459-.01.957-.01 1.483l.024 4.598q.001 1.155.024 1.823.022.667.043.977c.015.205.024.334.024.397l1.88.296-.066.905h-5.187zm15.111.182q-.904.001-1.608-.364a3 3 0 0 1-1.1-.928q-.396-.567-.397-1.177c0-.512.167-.938.497-1.268q.496-.495 1.632-.861l3.44-1.153V15.64q-.001-.568-.34-1.028a2.4 2.4 0 0 0-.904-.737 2.9 2.9 0 0 0-1.268-.273q-.568 0-.77.24c-.134.157-.22.473-.249.937l-.043.952q-.817.18-1.383-.057c-.378-.158-.564-.421-.564-.78q0-.385.33-.77c.22-.259.507-.503.87-.737a6.5 6.5 0 0 1 1.178-.598 5.7 5.7 0 0 1 1.244-.34c1.12 0 2.01.297 2.684.885q1.006.883 1.029 2.311l-.043 3.804q0 .43.033.838c.024.272.058.473.1.612l1.45.273v.703l-1.11.407a9 9 0 0 1-.588.191c-.182.053-.33.082-.455.082q-.703.001-.904-.794l-.249-.886h.34c-.498.56-.976.976-1.44 1.259-.46.277-.933.42-1.417.42zm.613-1.34c.349 0 .67-.08.976-.239q.453-.236.885-.737v-2.378l-2.536.68q-.544.136-.78.43-.239.294-.24.747-.001.568.508 1.029.511.465 1.187.464zm6.66 1.158-.067-.813 1.402-.34q.021-.113.043-.407c.014-.196.029-.459.034-.794.01-.33.01-.742.01-1.225l.023-1.765q0-.748-.057-1.474a17 17 0 0 0-.125-1.153l-1.45-.316v-.747l3.034-.837.316.316-.09 1.904.066.024q.681-1.314 1.383-1.78c.469-.31.904-.464 1.316-.464.35 0 .636.086.87.258.235.173.35.436.35.78s-.124.637-.373.828c-.25.191-.565.282-.938.282q-.408-.001-.78-.181a2.9 2.9 0 0 1-.713-.498l.407.134q-.432.273-.814.76a5.4 5.4 0 0 0-.703 1.211l.024 2.106.043 1.177q.021.611.043 1.1t.043.761l1.971.297-.043.861h-5.23zm14.456 4.982-.067-.814 1.631-.34c.015-.196.03-.387.034-.579.01-.191.014-.43.024-.722s.01-.69.01-1.187l-.024-2.809-.067-.024q-.633.861-1.36 1.268-.726.408-1.516.407-1.336 0-2.335-.598a4.13 4.13 0 0 1-1.55-1.665c-.37-.708-.556-1.526-.556-2.445q0-1.744.761-2.943c.507-.8 1.153-1.407 1.947-1.823.795-.416 1.604-.622 2.436-.622q.724 0 1.383.158t1.225.474l.703-.68h.704l-.043 1.565a62 62 0 0 0-.024 1.689v1.98l.067 5.303q.021 1.45.057 2.22.036.769.057 1.043l1.402.34-.067.813h-4.823zm-.79-6.321a2.64 2.64 0 0 0 1.225-.283c.364-.186.742-.526 1.134-1.01l.024-5.12a2.5 2.5 0 0 0-1.076-.885 3.2 3.2 0 0 0-1.259-.272c-.526 0-1.029.138-1.493.42q-.703.419-1.134 1.26c-.287.56-.43 1.258-.43 2.105q0 1.787.846 2.784.848.998 2.163.996zm16.47-.249 1.426.363v.747l-2.943.722-.339-.296.023-1.426-.067-.024c-.44.617-.885 1.052-1.349 1.301q-.692.374-1.483.374-1.516 0-2.536-.938-1.02-.94-1.02-2.819v-1.947q0-.632-.033-1.235c-.024-.402-.048-.804-.081-1.21l-1.541-.316v-.747l3.081-.837.407.364q-.044.703-.067 1.493a61 61 0 0 0-.024 1.655l-.024 2.493c0 .938.22 1.603.656 2.005.44.402.995.598 1.675.598q.61 0 1.244-.316c.42-.21.794-.574 1.11-1.086v-2.627c0-.33 0-.66-.01-.985a47 47 0 0 0-.033-.929 10 10 0 0 0-.067-.76l-1.656-.316v-.747l3.192-.837.34.316q-.024.63-.034 1.134c-.01.33-.01.66-.01.985v2.709c0 .832.02 1.497.058 2.005s.072.885.1 1.143zm7.843 1.77q-1.314 0-2.369-.588c-.703-.393-1.258-.957-1.674-1.69q-.624-1.1-.622-2.593.001-1.608.655-2.785c.44-.784 1.01-1.392 1.723-1.823a4.2 4.2 0 0 1 2.287-.622q1.765.021 2.761 1.177.996 1.154.995 3.263v.407h-6.952v-.995h5.459l-.249.297v-.474q0-1.313-.588-2.014-.589-.705-1.608-.704a2.26 2.26 0 0 0-1.225.373q-.587.374-.952 1.134c-.239.508-.364 1.144-.364 1.914v.273q0 1.86.919 2.9.918 1.042 2.369 1.043a3.15 3.15 0 0 0 1.425-.316q.631-.315 1.225-1.02l.565.522c-.421.785-.962 1.369-1.608 1.757a4.2 4.2 0 0 1-2.172.579zm21.116-13.57.498 3.67-.996.115-.952-2.56a2.4 2.4 0 0 0-.421-.057c-.158-.01-.297-.01-.421-.01h-1.426q-.387.002-.703.024c0 .12 0 .402-.01.847s-.01.962-.01 1.55v4.757q.002 1.448.024 2.502.023 1.053.024 1.369l1.924.272-.067.905h-5.776l-.043-.905 1.905-.273c0-.21.009-.67.024-1.368.014-.699.024-1.536.024-2.502v-6.307q-.002-.667-.024-.847a9 9 0 0 0-.67-.024h-1.508c-.119 0-.258 0-.406.01q-.228.014-.407.057l-.928 2.584-1.02-.134.498-3.67c.182.014.364.028.546.033.181.01.363.015.545.024s.369.015.555.024.373.01.555.01h6.479c.182 0 .364 0 .546-.01.181-.01.363-.014.545-.024s.369-.014.555-.024q.281-.013.555-.033zm6.732 13.57q-1.313 0-2.368-.588c-.704-.393-1.259-.957-1.675-1.69q-.623-1.1-.622-2.593.001-1.608.655-2.785c.441-.784 1.01-1.392 1.723-1.823a4.2 4.2 0 0 1 2.287-.622c1.177.014 2.101.407 2.761 1.177q.993 1.154.995 3.263v.407h-6.952v-.995h5.46l-.249.297v-.474q0-1.313-.589-2.014-.588-.705-1.608-.704-.633 0-1.225.373-.587.374-.952 1.134c-.239.508-.363 1.144-.363 1.914v.273q0 1.86.918 2.9.919 1.042 2.369 1.043a3.15 3.15 0 0 0 1.426-.316q.633-.315 1.225-1.02l.564.522q-.632 1.176-1.607 1.757a4.16 4.16 0 0 1-2.173.579zm5.556-.182-.067-.813 1.402-.34q.02-.113.043-.407.02-.293.033-.794c.01-.33.01-.742.01-1.225l.024-1.765q0-.748-.058-1.474a17 17 0 0 0-.124-1.153l-1.45-.316v-.747l3.034-.837.316.316-.091 1.904.067.024q.68-1.314 1.383-1.78.7-.465 1.315-.464c.35 0 .637.086.871.258.235.173.35.436.35.78s-.125.637-.374.828c-.248.191-.564.282-.938.282q-.407-.001-.779-.181a2.9 2.9 0 0 1-.713-.498l.406.134q-.432.273-.813.76a5.4 5.4 0 0 0-.704 1.211l.024 2.106q.022.567.043 1.177.022.611.043 1.1.022.49.044.761l1.971.297-.043.861h-5.23zm8.455 0-.043-.813 1.402-.34q.02-.157.033-.407t.034-.722q.023-.474.024-1.292l.024-1.766a10 10 0 0 0-.01-.976c-.024-.33-.048-.646-.081-.938a12 12 0 0 0-.091-.713l-1.45-.316v-.746l3.034-.837.382.363-.114 1.225.067.024c.469-.588.952-1.01 1.459-1.268a3.4 3.4 0 0 1 1.55-.383q.792 0 1.541.431.746.428 1.235 1.316.488.883.488 2.263l.024 2.402c0 .546.009 1.029.033 1.46q.036.644.101.894l1.359.34-.067.814h-4.417l-.067-.814 1.244-.34q.022-.18.043-.454.02-.273.034-.69c.009-.277.009-.63.009-1.052l-.024-2.493c0-.65-.1-1.167-.306-1.565q-.309-.588-.804-.86a2.2 2.2 0 0 0-1.062-.274c-.469 0-.904.115-1.316.34-.411.225-.77.58-1.086 1.062v3.398q-.002 1.042.033 1.689c.024.43.048.727.082.895l1.335.34-.067.813h-4.575zm12.771 0-.067-.813 1.292-.34q.02-.181.033-.454t.034-.69c.014-.277.024-.631.024-1.052v-2.47q-.001-.995-.34-1.583-.337-.59-.847-.861a2.2 2.2 0 0 0-1.029-.273c-.512 0-.99.129-1.425.383q-.661.387-1.178 1.177l-.43-.838c.526-.722 1.091-1.258 1.689-1.598a3.76 3.76 0 0 1 1.89-.507 3.27 3.27 0 0 1 1.723.455q.767.453 1.224 1.315.454.862.455 2.082v2.56c0 .545.01 1.029.034 1.46.023.43.047.727.081.894l1.402.34-.043.813zm9.814.182q-.905.001-1.608-.364a3 3 0 0 1-1.1-.928q-.397-.567-.398-1.177c0-.512.168-.938.498-1.268q.497-.495 1.632-.861l3.44-1.153V15.64q-.001-.568-.34-1.028a2.4 2.4 0 0 0-.904-.737 2.9 2.9 0 0 0-1.268-.273q-.568 0-.77.24c-.134.157-.22.473-.249.937l-.043.952q-.817.18-1.383-.057c-.378-.158-.565-.421-.565-.78q0-.385.33-.77c.221-.259.508-.503.871-.737a6.5 6.5 0 0 1 1.177-.598 5.7 5.7 0 0 1 1.245-.34c1.119 0 2.009.297 2.684.885q1.006.883 1.029 2.311l-.043 3.804q-.002.43.033.838a3 3 0 0 0 .101.612l1.449.273v.703l-1.11.407q-.315.114-.588.191c-.182.053-.33.082-.455.082q-.703.001-.904-.794l-.249-.886h.34c-.498.56-.976.976-1.441 1.259-.459.277-.933.42-1.416.42zm.612-1.34c.35 0 .67-.08.977-.239q.453-.236.885-.737v-2.378l-2.536.68q-.544.136-.78.43-.239.294-.24.747-.001.568.508 1.029c.339.31.737.464 1.186.464zm6.551 1.158-.043-.837 1.474-.316c.029-.148.052-.402.067-.746.014-.35.029-.809.033-1.383.01-.574.01-1.278.01-2.106v-2.832c0-.575 0-1.163-.01-1.766-.009-.603-.014-1.172-.024-1.708-.009-.536-.014-.995-.024-1.383a11 11 0 0 0-.033-.76l-1.675-.226-.043-.722 3.24-.929.43.316-.043 1.905a122 122 0 0 0-.033 2.105q-.009 1.156-.01 2.785l-.024 3.646q-.001 1.335.034 2.412c.024.717.048 1.182.081 1.392l1.474.316-.043.837zm12.671-1.177q.042-.18.091-1.076.043-.898.043-2.254v-4.259a52 52 0 0 0-.043-2.378c-.029-.603-.062-.952-.091-1.043l-1.383-.225.043-.885h5.393c1.478 0 2.603.277 3.364.828q1.141.825 1.143 2.368c0 .833-.325 1.531-.976 2.106-.651.574-1.493.9-2.536.976l-.273-.158c1.436.043 2.536.359 3.307.938s1.153 1.387 1.153 2.411q-.001 1.765-1.517 2.8c-1.01.689-2.388 1.028-4.12 1.028h-4.938l-.043-.861zm2.038-2.832q.001.996.024 1.799.022.802.043 1.01.294.042.795.1c.33.038.598.057.794.057q1.743.002 2.617-.636.87-.631.871-1.924c0-.861-.306-1.56-.919-2.005-.612-.445-1.526-.67-2.751-.67h-1.187q-.328 0-.579.043v-1.177c.288.015.56.03.814.034.258.01.536.01.837.01q1.494-.001 2.297-.656.804-.66.804-1.857c0-.799-.249-1.383-.747-1.799q-.746-.623-2.153-.622h-1.517c-.014.105-.028.445-.033 1.02-.01.574-.01 1.215-.01 1.923zm14.298 4.191q-1.472.001-2.57-.636a4.4 4.4 0 0 1-1.708-1.78c-.407-.761-.612-1.637-.612-2.618s.225-1.918.679-2.674a4.83 4.83 0 0 1 1.814-1.766 5.03 5.03 0 0 1 2.493-.637c.909 0 1.756.206 2.459.623a4.25 4.25 0 0 1 1.632 1.741c.383.747.579 1.618.579 2.618s-.211 1.813-.637 2.584a5.04 5.04 0 0 1-1.708 1.846q-1.076.69-2.412.69zm.225-1.067q.768.001 1.335-.464c.378-.311.67-.742.885-1.292q.316-.826.316-1.89 0-1.946-.804-3.158-.805-1.212-2.12-1.21c-.813 0-1.469.339-1.957 1.018q-.738 1.022-.737 2.694.001 1.27.397 2.245.397.973 1.101 1.516.702.546 1.584.546zm13.503-.521a3.1 3.1 0 0 1-1.177 1.167 3.1 3.1 0 0 1-1.565.421q-1.378.001-2.263-.837-.883-.84-.885-2.512l.067-5.412h-1.584v-.474l2.924-2.65h.43l-.043 2.602-.024 5.57c0 .785.168 1.369.508 1.742q.508.566 1.44.564.524.001.962-.205c.292-.14.564-.316.804-.546l.406.565zm-4.914-7.178v-1.134h4.235v1.134zm9.45 8.766q-.905 0-1.608-.363c-.468-.244-.832-.55-1.1-.929q-.396-.567-.397-1.177c0-.512.167-.938.497-1.268q.497-.495 1.632-.861l3.44-1.153V15.64a1.7 1.7 0 0 0-.339-1.028 2.34 2.34 0 0 0-.905-.737 2.9 2.9 0 0 0-1.268-.273q-.568 0-.77.24c-.134.157-.22.473-.249.937l-.043.952q-.817.18-1.383-.057c-.378-.158-.564-.421-.564-.78q0-.385.33-.77c.22-.259.507-.503.871-.737a6.5 6.5 0 0 1 1.177-.598 5.7 5.7 0 0 1 1.244-.34c1.12 0 2.01.297 2.684.885q1.006.883 1.029 2.311l-.043 3.804q-.002.43.033.838a3 3 0 0 0 .101.612l1.45.273v.703l-1.11.407a9 9 0 0 1-.589.191c-.182.053-.33.082-.454.082q-.704.001-.905-.794l-.249-.886h.34c-.498.56-.976.976-1.44 1.259s-.933.42-1.417.42zm.613-1.34c.349 0 .67-.08.976-.239s.598-.402.885-.737v-2.378l-2.536.68q-.544.136-.78.43-.238.294-.239.747-.002.568.507 1.029.511.465 1.187.464zm.631-9.761-.904-.297 2.244-4.12 1.814.522-3.149 3.895zm5.986 10.919-.043-.813 1.402-.34q.024-.158.034-.43c.005-.182.019-.431.033-.747q.023-.475.024-1.244l.024-1.742a19 19 0 0 0-.182-2.65l-1.45-.316v-.747l3.034-.837.383.363-.115 1.201.067.024q.79-.862 1.565-1.244a3.7 3.7 0 0 1 1.675-.383q.837 0 1.574.421c.493.278.89.709 1.201 1.278q.465.861.464 2.196v2.512c0 .546.01 1.034.033 1.474.024.44.058.732.101.886l1.402.34-.067.813h-4.551l-.043-.814 1.316-.34q.022-.18.043-.454a11 11 0 0 0 .034-.69c.009-.277.009-.63.009-1.052v-2.445q.002-1.02-.349-1.617-.352-.603-.871-.862a2.4 2.4 0 0 0-1.062-.258q-.747 0-1.392.373a3.45 3.45 0 0 0-1.101 1.029v3.397q0 1.042.033 1.69c.024.43.048.727.082.894l1.402.34-.067.814h-4.642zm12.599 0-.043-.837 1.517-.316q.02-.093.034-.316c.009-.148.019-.392.033-.722s.024-.794.024-1.383v-1.493c0-.617-.014-1.187-.043-1.699a12 12 0 0 0-.115-1.2l-1.517-.316v-.747l3.216-.837.339.316c-.043.468-.081.928-.1 1.382a38 38 0 0 0-.034 1.584v2.852q-.001 1.04.034 1.723c.024.454.048.741.081.86l1.517.317-.043.837h-4.89zm2.445-12.436q-.568-.002-.985-.383a1.23 1.23 0 0 1-.421-.952q-.002-.566.421-.952c.277-.259.607-.383.985-.383s.718.13.977.383c.258.258.382.574.382.952q-.001.566-.382.952c-.259.259-.579.383-.977.383m8.839 12.618a4.8 4.8 0 0 1-2.336-.579 4.3 4.3 0 0 1-1.698-1.675c-.421-.732-.637-1.603-.637-2.617s.225-1.866.67-2.66a5 5 0 0 1 1.833-1.881q1.169-.69 2.617-.689.999-.002 1.675.249c.455.167.794.383 1.029.655q.35.41.349.862a.84.84 0 0 1-.225.598q-.228.238-.636.239a1.4 1.4 0 0 1-.637-.134c-.181-.09-.402-.273-.655-.546l-1.153-1.153.813.225a2.72 2.72 0 0 0-1.742.168q-.838.373-1.382 1.292-.546.918-.546 2.368 0 1.816.919 2.785.918.976 2.297.976.86 0 1.483-.316.625-.315 1.187-1.019l.612.522c-.421.785-.962 1.368-1.608 1.756-.65.383-1.397.579-2.244.579zm10.086 0q-1.471.001-2.569-.636a4.37 4.37 0 0 1-1.709-1.78c-.406-.761-.612-1.637-.612-2.618s.225-1.918.679-2.674a4.83 4.83 0 0 1 1.814-1.766 5.03 5.03 0 0 1 2.493-.637c.909 0 1.756.206 2.459.623a4.25 4.25 0 0 1 1.632 1.741c.383.747.579 1.618.579 2.618s-.211 1.813-.636 2.584a5.05 5.05 0 0 1-1.709 1.846q-1.076.69-2.411.69zm.225-1.067q.768.001 1.335-.464c.378-.311.67-.742.885-1.292q.316-.826.316-1.89 0-1.946-.804-3.158-.805-1.212-2.12-1.21c-.813 0-1.469.339-1.957 1.018q-.738 1.022-.737 2.694.001 1.27.398 2.245.395.973 1.1 1.516.702.546 1.584.546zm-253.369-.217c-.907-5.676-6.848-9.9-12.332-10.288-.146-.011-.29.11-.325.246-.464 1.711-.082 3.787.55 5.402.983 2.515 2.983 4.376 5.609 5.08.982.264 1.979.335 2.99.371 1.5.05 2.99.254 4.494.25.318 0 .482-.479.172-.628l-1.311-.633c-.39-.19-.733.393-.34.582l1.311.633.172-.629c-1.215 0-2.422-.125-3.633-.207-.965-.065-1.926-.043-2.88-.215-1.382-.246-2.722-.793-3.794-1.718-1.672-1.44-2.572-3.605-2.783-5.773-.075-.764-.103-1.586.1-2.336l-.325.246c5.209.368 10.821 4.423 11.679 9.792.067.429.718.247.65-.178z"/><path fill="#fff" d="M17.074 21.083c.564-3.037-.733-6.106-2.258-8.67-1.45-2.44-3.508-4.452-6.073-5.699a.345.345 0 0 0-.461.122c-1.033 1.475-1.008 3.876-.822 5.569.293 2.694 1.472 5.28 3.715 6.891.822.59 1.744.944 2.651 1.376 1.154.546 2.28 1.146 3.465 1.618.276.11.533-.26.383-.496l-.636-.976c-.236-.36-.822-.025-.582.34l.635.975c.13-.164.254-.329.383-.497-1.294-.518-2.512-1.2-3.78-1.772-.922-.414-1.808-.821-2.586-1.475-1.283-1.079-2.148-2.554-2.605-4.155a11.9 11.9 0 0 1-.39-4.315c.083-.904.222-1.983.755-2.748l-.461.122c2.386 1.157 4.326 2.99 5.709 5.248 1.486 2.43 2.854 5.444 2.311 8.356-.079.425.572.607.65.179zm-.357-19.931c-.24.964-.726 1.782-1.208 2.665-.19.346-.379.679-.414 1.079-.025.321.053.65.21.928.358.633 1.054.958 1.755 1.022.432.04.428-.636 0-.675-.533-.05-1.111-.36-1.262-.907-.078-.283-.007-.554.129-.808.172-.321.347-.636.518-.957.379-.704.725-1.393.918-2.172.104-.422-.546-.6-.65-.179zm.196 25.236c-1.154.032-2.058.475-2.897 1.243-.44.4-.811.771-1.379.99a4.95 4.95 0 0 1-2.687.232c-1.625-.315-2.797-1.583-4.308-2.158-1.418-.54-2.997-.375-4.32.34-.381.206-.042.789.34.581 1.669-.896 3.405-.621 4.966.34 1.275.786 2.44 1.575 3.987 1.654 1.136.057 2.397-.21 3.283-.957.961-.808 1.661-1.55 3.012-1.59.432-.01.436-.686 0-.675z"/><path fill="#fff" d="M16.245 22.319c1.34 0 2.669-.158 4.005-.23.957-.05 1.907-.06 2.854-.246 1.443-.282 2.812-.896 3.926-1.86 1.787-1.54 2.73-3.848 2.973-6.156.089-.854.114-1.772-.115-2.612-.036-.136-.178-.257-.325-.246-3.54.25-6.773 1.925-9.224 4.465-1.14 1.18-2.09 2.555-2.661 4.098q-.216.579-.347 1.179c-.01.05-.093.564.043.354-.018.028-.15.067-.172.082-.346.218-.757.364-1.125.543-.39.19-.05.771.34.582q.52-.25 1.035-.5c.493-.24.443-.536.572-1.065.39-1.61 1.254-3.072 2.344-4.308 2.35-2.672 5.62-4.501 9.195-4.755l-.325-.246c.415 1.532.06 3.38-.471 4.83-.894 2.447-2.837 4.226-5.37 4.858-1 .25-2 .272-3.026.322-1.375.067-2.747.239-4.126.235-.432 0-.436.676 0 .676"/><path fill="#fff" d="M16.899 22.29c1.022-.407 2-.907 2.99-1.39.865-.421 1.78-.753 2.604-1.257a8.4 8.4 0 0 0 2.908-2.983c1.25-2.161 1.622-4.82 1.297-7.277-.114-.854-.282-1.826-.786-2.547a.35.35 0 0 0-.46-.122c-3.073 1.49-5.291 4.04-6.82 7.052-.797 1.565-1.43 3.251-1.612 5.005a8 8 0 0 0-.039 1.136c.01.268.154.765.132.95-.025.2-.425.683-.593.94-.24.364.347.704.582.34.19-.29.45-.587.59-.9.207-.476-.043-1.14-.04-1.666.015-1.818.647-3.604 1.44-5.219 1.48-3.019 3.637-5.57 6.702-7.056l-.46-.121c.535.764.675 1.843.753 2.747a11.9 11.9 0 0 1-.39 4.316c-.46 1.6-1.32 3.076-2.603 4.154-.78.654-1.669 1.061-2.587 1.476-1.268.572-2.486 1.254-3.78 1.772-.396.16-.225.81.18.65zm-.072-20.96c.193.78.54 1.472.918 2.172.165.304.333.608.493.911.147.272.24.547.154.854-.15.547-.732.858-1.261.908-.429.039-.432.714 0 .675.7-.064 1.393-.39 1.754-1.022.157-.279.24-.607.21-.929-.031-.4-.224-.732-.414-1.079-.478-.882-.968-1.7-1.207-2.665-.104-.421-.754-.243-.65.179zm.454 25.73c1.315.035 2.03.742 2.962 1.546.9.775 2.168 1.058 3.336 1 1.497-.075 2.648-.814 3.88-1.582 1.593-.997 3.351-1.333 5.073-.407.382.207.722-.376.34-.583-1.287-.69-2.809-.871-4.202-.386-1.572.55-2.761 1.894-4.43 2.205-1.543.289-2.883-.136-4.008-1.172-.861-.79-1.768-1.261-2.955-1.297-.435-.01-.432.661 0 .675z"/></svg>